<svg id="visual" viewBox="0 0 540 960" width="540" height="960" xmlns="http://www.w3.org/2000/svg" xmlns:xlink="http://www.w3.org/1999/xlink" version="1.1"><rect x="0" y="0" width="540" height="960" fill="#001220"></rect><path d="M0 295L12.8 276.2C25.7 257.3 51.3 219.7 77 222C102.7 224.3 128.3 266.7 154 285.3C179.7 304 205.3 299 231.2 291C257 283 283 272 308.8 261.3C334.7 250.7 360.3 240.3 386 229.2C411.7 218 437.3 206 463 212.8C488.7 219.7 514.3 245.3 527.2 258.2L540 271L540 0L527.2 0C514.3 0 488.7 0 463 0C437.3 0 411.7 0 386 0C360.3 0 334.7 0 308.8 0C283 0 257 0 231.2 0C205.3 0 179.7 0 154 0C128.3 0 102.7 0 77 0C51.3 0 25.7 0 12.8 0L0 0Z" fill="#c62368"></path><path d="M0 262L12.8 247.8C25.7 233.7 51.3 205.3 77 199C102.7 192.7 128.3 208.3 154 222C179.7 235.7 205.3 247.3 231.2 234.3C257 221.3 283 183.7 308.8 162.2C334.7 140.7 360.3 135.3 386 157.7C411.7 180 437.3 230 463 234.3C488.7 238.7 514.3 197.3 527.2 176.7L540 156L540 0L527.2 0C514.3 0 488.7 0 463 0C437.3 0 411.7 0 386 0C360.3 0 334.7 0 308.8 0C283 0 257 0 231.2 0C205.3 0 179.7 0 154 0C128.3 0 102.7 0 77 0C51.3 0 25.7 0 12.8 0L0 0Z" fill="#d53867"></path><path d="M0 228L12.8 218.5C25.7 209 51.3 190 77 191.8C102.7 193.7 128.3 216.3 154 217.7C179.7 219 205.3 199 231.2 182.8C257 166.7 283 154.3 308.8 153.2C334.7 152 360.3 162 386 178.7C411.7 195.3 437.3 218.7 463 215C488.7 211.3 514.3 180.7 527.2 165.3L540 150L540 0L527.2 0C514.3 0 488.7 0 463 0C437.3 0 411.7 0 386 0C360.3 0 334.7 0 308.8 0C283 0 257 0 231.2 0C205.3 0 179.7 0 154 0C128.3 0 102.7 0 77 0C51.3 0 25.7 0 12.8 0L0 0Z" fill="#e34c67"></path><path d="M0 142L12.8 145.8C25.7 149.7 51.3 157.3 77 144.7C102.7 132 128.3 99 154 88.3C179.7 77.7 205.3 89.3 231.2 98.2C257 107 283 113 308.8 124.3C334.7 135.7 360.3 152.3 386 149.7C411.7 147 437.3 125 463 121.3C488.7 117.7 514.3 132.3 527.2 139.7L540 147L540 0L527.2 0C514.3 0 488.7 0 463 0C437.3 0 411.7 0 386 0C360.3 0 334.7 0 308.8 0C283 0 257 0 231.2 0C205.3 0 179.7 0 154 0C128.3 0 102.7 0 77 0C51.3 0 25.7 0 12.8 0L0 0Z" fill="#ef5f67"></path><path d="M0 45L12.8 49.2C25.7 53.3 51.3 61.7 77 73.5C102.7 85.3 128.3 100.7 154 100.2C179.7 99.7 205.3 83.3 231.2 78.2C257 73 283 79 308.8 85.2C334.7 91.3 360.3 97.7 386 98.5C411.7 99.3 437.3 94.7 463 91.3C488.7 88 514.3 86 527.2 85L540 84L540 0L527.2 0C514.3 0 488.7 0 463 0C437.3 0 411.7 0 386 0C360.3 0 334.7 0 308.8 0C283 0 257 0 231.2 0C205.3 0 179.7 0 154 0C128.3 0 102.7 0 77 0C51.3 0 25.7 0 12.8 0L0 0Z" fill="#fa7268"></path></svg>